<?xml version="1.0" encoding="utf-8"?><svg fill="none" viewBox="0 0 33 33" xmlns="http://www.w3.org/2000/svg"><defs /><g transform="matrix(1,0,0,1,4.12,4.12)" id="surface720"><g id="surface720"><g><path fill="#ffd600" fill-opacity="1" d="M24.75,12.38C24.75,19.22,19.22,24.75,12.38,24.75C5.54,24.75,0,19.22,0,12.38C0,5.54,5.54,0,12.38,0C19.22,0,24.75,5.54,24.75,12.38" /></g><g><path fill="#000000" fill-opacity="1" d="M13.99,13.86C14.36,14.46,14.76,15.04,15.62,15.04C16.34,15.04,16.71,14.68,16.71,14.19C16.71,13.6,16.32,13.4,15.53,13.06L15.1,12.88C13.85,12.36,13.02,11.69,13.02,10.3C13.02,9.02,14.01,8.05,15.55,8.05C16.65,8.05,17.45,8.42,18.02,9.41L16.67,10.27C16.37,9.75,16.05,9.54,15.55,9.54C15.04,9.54,14.73,9.86,14.73,10.27C14.73,10.78,15.05,10.98,15.79,11.3L16.22,11.49C17.69,12.11,18.52,12.74,18.52,14.17C18.52,15.71,17.3,16.55,15.66,16.55C14.05,16.55,13.14,15.75,12.63,14.76L13.99,13.86ZM7.78,13.91C8.05,14.39,8.47,14.76,9.06,14.76C9.63,14.76,9.95,14.54,9.95,13.68L9.95,8.05L11.74,8.05L11.74,13.95C11.74,15.74,10.69,16.55,9.16,16.55C7.78,16.55,6.79,15.62,6.38,14.76L7.78,13.91Z" /></g></g></g></svg>