<svg xmlns="http://www.w3.org/2000/svg" viewBox="0 0 128 128" fill="none">
  <ellipse cx="34" cy="42" rx="14" ry="18" fill="#60A5FA"/>
  <ellipse cx="56" cy="24" rx="14" ry="18" fill="#60A5FA"/>
  <ellipse cx="84" cy="24" rx="14" ry="18" fill="#60A5FA"/>
  <ellipse cx="106" cy="42" rx="14" ry="18" fill="#60A5FA"/>

  <path d="M64 58
           C42 58 24 74 24 94
           C24 114 42 124 64 124
           C86 124 104 114 104 94
           C104 74 86 58 64 58Z"
        fill="#60A5FA"/>

  <ellipse cx="28" cy="36" rx="5" ry="7" fill="white" opacity="0.6"/>
  <ellipse cx="50" cy="18" rx="5" ry="7" fill="white" opacity="0.6"/>
  <ellipse cx="78" cy="18" rx="5" ry="7" fill="white" opacity="0.6"/>
  <ellipse cx="100" cy="36" rx="5" ry="7" fill="white" opacity="0.6"/>
  <ellipse cx="48" cy="82" rx="8" ry="5" fill="white" opacity="0.4"/>
</svg>