<?xml version="1.0" encoding="utf-8"?><svg fill="none" viewBox="0 0 256 256" xmlns="http://www.w3.org/2000/svg"><defs /><g transform="matrix(1,0,0,1,0,0)" id="Layer 1"><g id="Object" transform="matrix(1,0,0,1,128,128)"><ellipse ry="128" rx="128" cy="0" cx="0" fill="#222222" fill-opacity="1" /></g><g><g transform="translate(128,133.5)"><g transform="rotate(0)"><animateTransform repeatCount="indefinite" type="rotate" attributeName="transform" dur="20s" begin="0s" calcMode="spline" values="0; 360" keyTimes="0; 1" keySplines="0 0 1 1" fill="freeze" /><g id="reactlogoyo" transform="translate(-91,-80.5)"><path fill="#53c1de" fill-opacity="1" d="M149.641,52.183C169.298,58.911,182,69.45,182,80.347C182,91.712,168.425,102.824,147.561,109.697C146.458,110.06,145.328,110.409,144.176,110.747C144.587,112.391,144.953,114.004,145.268,115.584C149.387,136.271,146.215,153.274,136.452,158.893C127,164.333,111.724,158.989,96.256,145.755C94.574,144.313,92.934,142.825,91.336,141.292C90.067,142.511,88.8,143.675,87.538,144.772C71.569,158.651,55.17,164.409,45.399,158.807C35.938,153.381,32.965,137.554,36.772,117.621C37.188,115.455,37.665,113.3,38.202,111.161C36.549,110.691,34.907,110.181,33.28,109.631C13.21,102.811,0,91.562,0,80.347C0,69.489,12.306,59.021,31.574,52.342C33.728,51.595,35.979,50.893,38.31,50.235C37.811,48.249,37.362,46.251,36.965,44.242C32.973,23.956,35.782,7.744,45.267,2.285C55.159,-3.408,71.633,2.706,88.069,17.216C89.091,18.12,90.097,19.043,91.085,19.985C92.56,18.569,94.071,17.19,95.616,15.85C111.299,2.281,126.826,-3.395,136.32,2.049C146.223,7.725,149.122,24.969,144.688,46.374C144.41,47.704,144.109,49.028,143.782,50.347C145.75,50.91,147.704,51.522,149.641,52.183L149.641,52.183ZM145.115,102.359L145.116,102.359C163.13,96.424,174.226,87.342,174.226,80.347C174.226,73.78,163.953,65.257,147.11,59.493C145.369,58.896,143.562,58.331,141.7,57.795C139.461,64.999,136.473,72.61,132.842,80.386C136.646,88.35,139.755,96.06,142.059,103.31C143.099,103.003,144.121,102.687,145.115,102.359L145.115,102.359ZM137.641,117.086C137.356,115.658,137.026,114.198,136.655,112.709C129.117,114.441,120.805,115.71,112.006,116.486C107.004,123.686,101.879,130.17,96.75,135.747C98.282,137.212,99.81,138.598,101.327,139.895C114.554,151.213,126.821,155.504,132.556,152.202C135.252,150.651,137.431,146.778,138.515,140.969C139.722,134.504,139.462,126.233,137.641,117.086L137.641,117.086ZM62.048,151.632L62.048,151.632C68.284,149.442,75.36,145.089,82.422,138.951C83.604,137.921,84.76,136.863,85.889,135.776C80.575,130.105,75.302,123.63,70.267,116.585C61.447,115.874,53.195,114.694,45.74,113.055C45.241,115.045,44.798,117.048,44.411,119.063C41.156,136.109,43.542,148.818,49.283,152.11C51.981,153.656,56.444,153.6,62.048,151.632L62.048,151.632ZM35.795,102.316C37.281,102.819,38.779,103.285,40.288,103.714C42.587,96.262,45.617,88.439,49.269,80.535C45.664,72.748,42.676,65.047,40.398,57.682C38.291,58.274,36.202,58.927,34.134,59.641C17.655,65.354,7.774,73.758,7.774,80.347C7.774,83.444,10.054,87.26,14.568,91.104C19.591,95.381,26.92,99.3,35.795,102.316L35.795,102.316ZM44.596,42.757L44.596,42.756C44.965,44.625,45.382,46.484,45.846,48.332C53.379,46.635,61.573,45.368,70.133,44.579C75.124,37.575,80.349,31.148,85.636,25.503C84.724,24.635,83.813,23.797,82.906,22.996C68.715,10.468,55.252,5.471,49.163,8.976C43.446,12.265,41.175,25.376,44.596,42.757L44.596,42.757ZM123.102,62.031C124.91,65.135,126.655,68.274,128.337,71.447C130.639,66.09,132.594,60.863,134.163,55.865C128.938,54.679,123.375,53.71,117.568,52.981C119.477,55.958,121.323,58.975,123.102,62.031L123.102,62.031ZM91.087,31.027C87.445,34.934,83.823,39.241,80.287,43.877C87.453,43.544,94.631,43.545,101.797,43.882C98.265,39.203,94.673,34.889,91.087,31.027L91.087,31.027ZM58.867,62.084C60.655,59.002,62.515,55.962,64.446,52.967C58.677,53.684,53.139,54.628,47.946,55.784C49.528,60.853,51.466,66.103,53.73,71.442C55.368,68.283,57.082,65.163,58.867,62.084L58.867,62.084ZM64.612,108.279C62.633,105.227,60.728,102.128,58.898,98.986C57.105,95.906,55.384,92.784,53.738,89.623C51.426,95.076,49.446,100.439,47.839,105.598C53.03,106.722,58.652,107.618,64.612,108.279L64.612,108.279ZM91.302,130.214C94.864,126.314,98.443,121.935,101.987,117.146C98.377,117.306,94.71,117.389,91,117.389C87.389,117.389,83.837,117.32,80.352,117.184C83.942,121.887,87.617,126.26,91.302,130.214L91.302,130.214ZM128.412,89.345C126.724,92.579,124.964,95.776,123.133,98.933C121.332,102.038,119.469,105.108,117.546,108.141C123.549,107.425,129.246,106.46,134.523,105.263C132.895,100.191,130.844,94.858,128.412,89.345L128.412,89.345ZM116.398,95.071L116.399,95.071C119.18,90.282,121.788,85.396,124.219,80.423C121.763,75.5,119.146,70.658,116.373,65.904C113.616,61.162,110.691,56.519,107.604,51.983C102.193,51.573,96.636,51.358,91.001,51.358C85.391,51.358,79.841,51.571,74.428,51.978C71.31,56.521,68.367,61.18,65.604,65.946L65.604,65.945C62.84,70.709,60.258,75.575,57.862,80.533C60.264,85.489,62.854,90.352,65.627,95.113C68.413,99.899,71.38,104.579,74.522,109.142C79.827,109.484,85.337,109.659,91,109.659C96.687,109.659,102.267,109.461,107.667,109.078C110.729,104.504,113.641,99.833,116.398,95.071L116.398,95.071ZM132.437,8.746C126.715,5.465,114.157,10.055,100.72,21.682C99.294,22.919,97.898,24.193,96.535,25.499C101.737,31.071,106.918,37.509,111.92,44.589C120.504,45.39,128.704,46.68,136.254,48.412C136.549,47.218,136.822,46.018,137.073,44.814C140.902,26.333,138.531,12.241,132.437,8.746L132.437,8.746ZM91,64.188C99.976,64.188,107.252,71.423,107.252,80.347C107.252,89.272,99.976,96.507,91,96.507C82.025,96.507,74.748,89.272,74.748,80.347C74.748,71.423,82.025,64.188,91,64.188L91,64.188Z" /></g></g></g></g></g></svg>